/* XPM */
static char *result[] = {
/* columns rows colors chars-per-pixel */
"40 40 204 2 ",
"   c #9A9C7B",
".  c #B99F65",
"X  c #A59E75",
"o  c #BEA065",
"O  c #B8A965",
"+  c #BDA36B",
"@  c #ACA576",
"#  c #A6A37C",
"$  c #B8A671",
"%  c #BCB27E",
"&  c #C5A55E",
"*  c #C4A464",
"=  c #C9A761",
"-  c #C7A967",
";  c #CAA966",
":  c #C3A66A",
">  c #C7A969",
",  c #CBAB6B",
"<  c #D1AF6A",
"1  c #CFB26B",
"2  c #D3B167",
"3  c #D4B36D",
"4  c #DAB76E",
"5  c #DCBA6E",
"6  c #C5AC75",
"7  c #C9AD74",
"8  c #C7AC78",
"9  c #C9B575",
"0  c #CCB57A",
"q  c #CEBB7E",
"w  c #D5B572",
"e  c #DAB671",
"r  c #D6B974",
"t  c #DCBB73",
"y  c #D2B57D",
"u  c #D4BB7B",
"i  c #DDBC7A",
"p  c #E2BE6F",
"a  c #E2BE74",
"s  c #E2BF7A",
"d  c #CFC07F",
"f  c #DCC175",
"g  c #DCC37C",
"h  c #E2C275",
"j  c #EAC675",
"k  c #EBC877",
"l  c #E3C479",
"z  c #ECC77D",
"x  c #E5CC7D",
"c  c #EDCA7B",
"v  c #F1CE7A",
"b  c #EFD37C",
"n  c #F3D57E",
"m  c #5D919C",
"M  c #669395",
"N  c #63949F",
"B  c #6C969C",
"V  c #6C999E",
"C  c #7A9791",
"Z  c #769995",
"A  c #7C9C93",
"S  c #719B9D",
"D  c #7B9E9A",
"F  c #76A095",
"G  c #76A09E",
"H  c #7BA19C",
"J  c #5A92A6",
"K  c #5D94A8",
"L  c #6295A3",
"P  c #6897A1",
"I  c #6698A3",
"U  c #6C9AA1",
"Y  c #6196A9",
"T  c #6599AB",
"R  c #6C9DAD",
"E  c #749DA2",
"W  c #719EAA",
"Q  c #73A2B1",
"!  c #7BA5B2",
"~  c #8A9C88",
"^  c #939D81",
"/  c #839F95",
"(  c #8DA48F",
")  c #92A38C",
"_  c #95A98A",
"`  c #9CAB8E",
"'  c #84A297",
"]  c #8AA494",
"[  c #8DAB97",
"{  c #83A29C",
"}  c #8CAA9A",
"|  c #92A794",
" . c #96AA93",
".. c #9AAB93",
"X. c #92AC9C",
"o. c #9FB699",
"O. c #A9A982",
"+. c #A2AC8B",
"@. c #BDA783",
"#. c #A7B58F",
"$. c #ABB28B",
"%. c #B3B387",
"&. c #BBB685",
"*. c #B8B489",
"=. c #BDAE96",
"-. c #A5B595",
";. c #A8BA97",
":. c #B7B898",
">. c #93ACA5",
",. c #98B3A6",
"<. c #8AACB6",
"1. c #82AAB8",
"2. c #B8BAA8",
"3. c #A7BCBF",
"4. c #C7AF82",
"5. c #C4B983",
"6. c #C9BB82",
"7. c #C6B58C",
"8. c #C5BD88",
"9. c #DBBF84",
"0. c #D2BB88",
"q. c #CAB997",
"w. c #D3BF99",
"e. c #CFBFA6",
"r. c #CABEB3",
"t. c #B1C3A6",
"y. c #C9C48C",
"u. c #D6C183",
"i. c #D5C986",
"p. c #DACB85",
"a. c #DDC088",
"s. c #DDD68A",
"d. c #D5C994",
"f. c #D8C997",
"g. c #D9C39B",
"h. c #DAD291",
"j. c #EACD83",
"k. c #E5CA88",
"l. c #EED382",
"z. c #F5D384",
"x. c #F5DA84",
"c. c #F4DD8A",
"v. c #F4D794",
"b. c #F1D69C",
"n. c #EEE38C",
"m. c #F9E98C",
"M. c #EAE492",
"N. c #F9E392",
"B. c #FAEE95",
"V. c #F5E29D",
"C. c #FCF399",
"Z. c #CFC7AA",
"A. c #CDC9AB",
"S. c #DEC9A5",
"D. c #D5C6AA",
"F. c #D7D8A7",
"G. c #C9CAB3",
"H. c #CEC5B9",
"J. c #D4CAB8",
"K. c #DACEBC",
"L. c #E2CFA4",
"P. c #ECDBA2",
"I. c #E1D0B5",
"U. c #E4D3BB",
"Y. c #F7EAB4",
"T. c #9AB7C2",
"R. c #A4BEC6",
"E. c #A8BFC8",
"W. c #B9C8CE",
"Q. c #C7C3C5",
"!. c #CACAC5",
"~. c #D4CCC1",
"^. c #D4CDCB",
"/. c #DED3C5",
"(. c #DDD5CB",
"). c #C2CED5",
"_. c #D3CED1",
"`. c #CAD2D8",
"'. c #CDD6D9",
"]. c #D7D3D4",
"[. c #DBD5D4",
"{. c #D1D7DA",
"}. c #D9D8DA",
"|. c #DCD9DB",
" X c #E7DBC7",
".X c #E1D9CD",
"XX c #E2DBD2",
"oX c #E9DCD2",
"OX c #E2DCDE",
"+X c #F3E8CF",
"@X c #E9E2DE",
"#X c #F2E6D9",
"$X c #DBDDE0",
"%X c #E4DFE0",
"&X c #E6E1E2",
"*X c #EBE5E5",
"=X c #EBE7E8",
"-X c #EFE9E9",
";X c #F3E9E3",
":X c #F2ECEC",
">X c #F4F1E3",
",X c #F7F0EF",
"<X c #F4EFF0",
"1X c #F7F1F1",
/* pixels */
"J J J J J J J J J J J J J J J J J J J J J J J J J J J J J J J J J J J J J J J J ",
"J J J J J J J J J J J J J J J J J J J J J J J J m K K m J J J J J J J J J J J J ",
"J J J J J J J J J J J J J J J J J J J J J J K K G [ G K J J J J J J J J J J J J ",
"J J J J J J J J J J J J J J J J J J I E I m K I ;.;.H K J J J J J J J J J J J J ",
"J J J J J J J J J J J J J J J J J J H -.H J U ;.s.#.V J J J J J J J J J J J J J ",
"J J J J J J J J J J J J J J J J J Y [ i.} P o.n.x H m J J J J J J J J J J J J J ",
"J J J J J J J J J J J J J J J J J I [ p.+.;.M.m.d F J J J J J J J J J J J J J J ",
"J J J J J J J J J J J J J J J J J I [ p.i.s.m.x.% S J K K J J J J J J J J J J J ",
"J J J J J J J J J J J J J J J J J N  .x n x.x.z ` ( } } D K J J J J J J J J J J ",
"J J J J J J J J J J J J L E E S G H %.g n n v a % y.i.y.' K J J J J J J J J J J ",
"J J J J J J J J J J J V  .*.5.6.q g g f h j k k b n.i.` L J J J J J J J J J J J ",
"J J J J J J J K J V ..y.p.x c c c l.l.t 4 5 a j b d _ V K J J J J J J J J J J J ",
"J J J J J J K K H ;.h.N.N.V.v.x.z.x.c.i 3 < e t 0 ) B J J J J J J J J V E T J J ",
"J J J J J J L U ;.c.B.C.Y.+X Xb.z.x.c.h w 3 w w @ Z L Y J J J J Y U E >.,.{ J J ",
"J J J J J J Y ..M.C.B.Y.>X=X=X Xv.n c.l a t 4 3 O _ ] D J J J L H ;.H.XX!.<.J J ",
"J J J J J Q t.d.B.m.N.Y.-X|.|.(.b.n x i a 5 t 9.L.Z.>.N L J F o.G..X@X<X`.1.J K ",
"J J J J J >.F.V.c.z.z.b..X[.].J.k.j s u a.g.L.U.#XI...N L H -.A..XOX-X,X).1.J K ",
"J J J J J >.d.P.j.z j.k.S.K.J.g.9.s 9.w.D./.oX:X*XL.# ~ S #.D.(.$X%X%X-XW.! J K ",
"J J J J J Z O.d.k.s a j l a.9.t y q.H.^.[.%X-X:XoX9.: X  .q.~._.%X%X=X=XE.R J J ",
"J J J m J Z O.8.a.e t s a r t t 0.r._.[.%X*X:X:XI.w ; 6 *.H.].|.%X=X<X=XT.K J J ",
"J J J J J / @.7.a.w 3 t l 5 3 1 q.Q.].%X*X:X:X;Xg.< & 7 w.^.}.%X=X:X<X`.1.J J J ",
"J J J J J | 7.u.0.3 2 r g f ; + =.Q.OX%X-X:X:X;X0., = 8 H.].OX%X%X-X=XR.R J J J ",
"J J J J J X.f.d.y , , ; 3 x 1 o @.r.[.%X-X:X,X#X0.; * 4.Q.[.OX%X-X<X`.Q K J J J ",
"J J J J J X.y.6.> > > = - f r - . 8 e.XX*X<X<X#Xy ; : 7.^.|.%X&X-X%XT.T K J J J ",
"J J J J J  .5.O.. > > ; * < f 3 o : 8 w./.*X1X#Xy X # q.[.|.OX&X-X$X! K K J J J ",
"J J J J J ( 5.(   $ : * * , h 4 * * & : 0./.;X;Xq.~ ~ :.[.OX%X*X-X{.Q K J J J J ",
"J J J J J  .&.+.P ~ X O : : s 3 * . . * * 9 D.[.3.W / =.[.|.OX-X-X{.R K J J J J ",
"J J J J J H $.&.P L M C ^ X u e * & = = ; = @ ! 1.T C :..XXXOX*X-X'.T J J J J J ",
"J J J J J N  .5.H J J N B C &.g p 2 2 2 4 5 9 ] R K M ../.%XOX*X=X).T K J J J J ",
"J J J J J J H &.+.P J J J L $.g j a p a a h h % D Y m / H.%XOX%X$XT.K K J J J J ",
"J J J J J J V +.0 D K m J L ..d l e 5 9 t r 0 0 +.B J E r.oX*X%XW.Q J J J J J J ",
"J J J J J J J D 5. .V L J J ] 5.y &.9 / $.@ ' / ] B J N ' /.OX}.T.K J J J J J J ",
"J J J J J J J V &.$.H J J m V *.q +.] L Z A N L B L J J B 2.!.3.R J J J J J J J ",
"J J J J J J J B $.&.' J J J J ..6.+.N J J Y L J J J J J Y { >.W J J J J J J J J ",
"J J J J J J J N ` &.] J K J J H *.6.S J J J J J J J J J J J m J K J J J J J J J ",
"J J J J J J J J +.$.' J m J m J | 6.5.U J J J J J J J J J J J J J J J J J J J J ",
"J J J J J J J J ] ] V J K J J J V _ 6.%.H J J J J J J J J J J J J J J J J J J J ",
"J J J J J J J J V V m J J J J J J B +.5.O.G J J J J J J J J J J J J J J J J J J ",
"J J J J J J J J J J J J J J J J J J L ( +.' J J J J J J J J J J J J J J J J J J ",
"J J J J J J J J J J J J J J J J J J J L V N J J J J J J J J J J J J J J J J J J "
};
