/* XPM */
static char *result[] = {
/* columns rows colors chars-per-pixel */
"40 40 72 1 ",
"  c #433633",
". c #333D4D",
"X c #384046",
"o c #39414B",
"O c #3B4651",
"+ c #4D545E",
"@ c #694547",
"# c #4F5660",
"$ c #505762",
"% c #535A64",
"& c #5A5E64",
"* c #575E68",
"= c #595F69",
"- c #5E6166",
"; c #576069",
": c #5B626C",
"> c #5E6671",
", c #676069",
"< c #606671",
"1 c #636A75",
"2 c #686E76",
"3 c #666E79",
"4 c #696F7A",
"5 c #6C737D",
"6 c #72757C",
"7 c #6E7480",
"8 c #6E7A85",
"9 c #707682",
"0 c #747A85",
"q c #787D87",
"w c #767D89",
"e c #797E8A",
"r c #7C818C",
"t c #7E8591",
"y c #81868D",
"u c #818692",
"i c #848A94",
"p c #878E99",
"a c #8A8F98",
"s c #8D939C",
"d c #90959C",
"f c #9095A0",
"g c #959AA3",
"h c #999EA5",
"j c #9DA2AD",
"k c #A1A5AC",
"l c #A4A9AF",
"z c #A3A7B0",
"x c #A7ACB7",
"c c #A9ADB6",
"v c #AEB3B9",
"b c #C0B5B6",
"n c #B7BCC0",
"m c #BABFC4",
"M c #BFC3C6",
"N c #C5C6C7",
"B c #CFC0C1",
"V c #C3C7CD",
"C c #C5C9CD",
"Z c #CACDD1",
"A c #CED2D6",
"S c #D2D6DA",
"D c #D5D9DD",
"F c #DADADA",
"G c #D9DEE2",
"H c #DCE0E4",
"J c #E1E2E3",
"K c #E2E6E9",
"L c #E7EAED",
"P c gray91",
"I c #F0F1F1",
"U c None",
/* pixels */
"UUUUUUUUUUUUUUUUUUUUUUUUUUUUUUUUUUUUUUUU",
"UUUUUUUUUUUUUUUUUUUUUUUUUUUUUUUUUUUUUUUU",
"UUUUUUUUUUUUUUUUUUUUUUUUUUUUUUUUUUUUUUUU",
"UUUUUUUUUUUUUUUUUUUUUUUUUUUUUUUUUUUUUUUU",
"UUUUUUUUUUUUUUUUUUuqUUUUUUUUUUUUUUUUUUUU",
"UUUUUUUUUUUUUUUUUUUaUUUUUUUUUUUUUUUUUUUU",
"UUUUUUUUUUUUUUUUUUUp6UUUUUUUUUUUUUUUUUUU",
"UUUUUUUUUUUUUUUUUUUte5UUUUUUUUUUUUUUUUUU",
"UUUUUUUUUUUUUUUUUUUt95UUUUUUUUUUUUUUUUUU",
"UUUUUUUUUUUUUUUUUUUr59UUUUUUUUUUUUUUUUUU",
"UUUUUUUUUUUUUUUUUU0e541UUUUUUUUUUUUUUUUU",
"UUpUUUUUUUUUUUUUUU9011:UUUUUUUUUUUUUUUUU",
"UUprUUUUUUUUUUUUUU551<1*UUUUUUUUUUUUUUUU",
"UUisUUUUUUUUUUUUUU54<:=%:260rreUUUUUUUUU",
"UUUt5UUUUUUUUUUUUU71::%%2560idjlhsUUUUUU",
"UUUwr1UUUUUUUUUUU>1:=%$$++#%::4esckUUUUU",
"UUU083UUUUUUUUUU15*%%$%%%$%=<3990qscgUUU",
"UUUU51*UUUUUU%4ee2==%%$$%$%&>+.&&qrijfUU",
"UUUU2::UUUU0qru9<::*%%%$$#$=%yb .qipiDUU",
"UUUU32$:r0agae11<:=*%$$%%&%&&0B@8ewrVGUU",
"UUUU1>$wtw073111>:==%%$%-,&%==6,3rjZGUUU",
"UUUU1>+8tw977411<>==%$$%&&&%=<<lZFKLUUUU",
"UUUU1*%#Uwe04431<:==*%$%&&&$=:dNFPIUUUUU",
"UUUU3*#UUUU358>:1::=%$$$-&&%%9mNCZJUUUUU",
"UUU33%UUUUUUUhdi:*:%:;*$%--$.jGSDDSUUUUU",
"UUU33UUUUUUUUUUZmr#553>;%++;sAAASHUUUUUU",
"UUU0:UUUUUUUUUUUU50M5>::+1vMAAADHUUUUUUU",
"UU52UUUUUUUUUUUUU1UU53:;OlLHHHHSUUUUUUUU",
"UU5UUUUUUUUUUUUUU0UU13;*+vAAAAUUUUUUUUUU",
"UUUUUUUUUUUUUUUUUUUUU3*;%UUUUUUUUUUUUUUU",
"UUUUUUUUUUUUUUUUUUUUU1*%UUUUUUUUUUUUUUUU",
"UUUUUUUUUUUUUUUUUUUUU:;%UUUUUUUUUUUUUUUU",
"UUUUUUUUUUUUUUUUUUUUU:%UUUUUUUUUUUUUUUUU",
"UUUUUUUUUUUUUUUUUUUUU>%UUUUUUUUUUUUUUUUU",
"UUUUUUUUUUUUUUUUUUUUU;UUUUUUUUUUUUUUUUUU",
"UUUUUUUUUUUUUUUUUUUUUUUUUUUUUUUUUUUUUUUU",
"UUUUUUUUUUUUUUUUUUUUUUUUUUUUUUUUUUUUUUUU",
"UUUUUUUUUUUUUUUUUUUUUUUUUUUUUUUUUUUUUUUU",
"UUUUUUUUUUUUUUUUUUUUUUUUUUUUUUUUUUUUUUUU",
"UUUUUUUUUUUUUUUUUUUUUUUUUUUUUUUUUUUUUUUU"
};
