/* XPM */
static char *result[] = {
/* columns rows colors chars-per-pixel */
"40 40 144 2 ",
"   c #211B9F",
".  c #231EA0",
"X  c #1A26AF",
"o  c #1C27B0",
"O  c #1928B2",
"+  c #2621A3",
"@  c #2F27A9",
"#  c #362CAD",
"$  c #382FAE",
"%  c #3C33AE",
"&  c #3E34B3",
"*  c #3037BD",
"=  c #3A3CBF",
"-  c #4137AE",
";  c #443AAF",
":  c #493FAF",
">  c #264AB9",
",  c #2A50B9",
"<  c #3762B3",
"1  c #3E6CB0",
"2  c #4B41B0",
"3  c #4D41BE",
"4  c #4768A4",
"5  c #4D68AB",
"6  c #4879AD",
"7  c #4E75B5",
"8  c #122FC1",
"9  c #1D2FC3",
"0  c #1532C3",
"q  c #1B34CC",
"w  c #1E35D3",
"e  c #273CC6",
"r  c #2B3EC8",
"t  c #2036D5",
"y  c #2437DB",
"u  c #2738DE",
"i  c #2837E1",
"p  c #2D3BE1",
"a  c #3947CC",
"s  c #3B47CD",
"d  c #3A46D3",
"f  c #3D47D9",
"g  c #3643E1",
"h  c #3941E1",
"j  c #3F4AE1",
"k  c #435BC2",
"l  c #5258DF",
"z  c #6555CE",
"x  c #6758C9",
"c  c #6A59D1",
"v  c #4D63CF",
"b  c #5467CF",
"n  c #5170C4",
"m  c #4C60D2",
"M  c #7262CC",
"N  c #716DCF",
"B  c #7675CB",
"V  c #747DCB",
"C  c #7260D7",
"Z  c #736DD2",
"A  c #7462D8",
"S  c #7C69DE",
"D  c #7277D0",
"F  c #7977D5",
"G  c #777AD0",
"H  c #7979D3",
"J  c #7C75D8",
"K  c #414AE1",
"L  c #4B4EE1",
"P  c #4D52E1",
"I  c #5254E2",
"U  c #5C57E2",
"Y  c #5759E2",
"T  c #5D5AE2",
"R  c #625DE2",
"E  c #6560E2",
"W  c #6F63E2",
"Q  c #7265E2",
"!  c #7D6BE3",
"~  c #826DDE",
"^  c #8172DE",
"/  c #927CDF",
"(  c #846EE4",
")  c #8571E3",
"_  c #8A75E4",
"`  c #8D7AE4",
"'  c #937DE4",
"]  c #578EA7",
"[  c #588FA7",
"{  c #5B8EAB",
"}  c #5A92A6",
"|  c #5C90A9",
" . c #5787B0",
".. c #5884B4",
"X. c #638AB4",
"o. c #6A85BD",
"O. c #6688B8",
"+. c #6E88BD",
"@. c #748DBE",
"#. c #7791BE",
"$. c #7C95BE",
"%. c #7C85CC",
"&. c #839CBF",
"*. c #8AA2BF",
"=. c #868ECC",
"-. c #8A91CC",
";. c #9097CD",
":. c #949BCD",
">. c #9A84DF",
",. c #9AA2CE",
"<. c #A3A9CE",
"1. c #ADB3CF",
"2. c #B0B7D0",
"3. c #9781E4",
"4. c #9B85E4",
"5. c #9E88E5",
"6. c #A38CE4",
"7. c #A592E5",
"8. c #AB93E6",
"9. c #AE9AE5",
"0. c #B39AE6",
"q. c #AFA3E8",
"w. c #BDA5E7",
"e. c #BEA8E5",
"r. c #B6A8E8",
"t. c #BEABE8",
"y. c #C0A8E2",
"u. c #C9AFE3",
"i. c #C1A7E8",
"p. c #C7AEE8",
"a. c #CBB4E5",
"s. c #C7B3E9",
"d. c #C1B8E9",
"f. c #D5BDE6",
"g. c #D2B7E8",
"h. c #D4B8E9",
"j. c #D7C0E7",
"k. c #D8C0E5",
"l. c #DDC1EA",
"z. c #DBD6EC",
"x. c #DCD8EC",
"c. c #E3CDEA",
"v. c #E8D1EC",
"b. c #EAE1ED",
/* pixels */
"} | O.o.o.o.o.o.@.@.$.&.&.*.*.*.*.*.$.$.#.@.+.%.O.O.o.o.o.o.o.o.o.7 1 6 } } } } ",
"} | G ( ) ) ) ^ 6.6.0.y.u.f.c.c.k.f.e.9.7.4./ J ( ! ^ ( ~ ) ) ^ ) a 0 , } } } } ",
"} | F ( S S S ~ / / 6.0.w.u.f.k.a.e.0.6.>./ ~ S S S S S S S ! ( ! s 8 , [ } } } ",
"} | F ( 3 # # % $ - - - ; : 2 2 2 2 ; % % % % % # # # # * r a S ) a 8 , [ } } } ",
"} | F ( &       . . . .   . . .     .       . .         O 0 e S ) s 8 , ] } } } ",
"} { F ( = X o o o o X X X o X o X X O O o o o O o o o o 9 w d Q ) a 0 , ] } } } ",
"} | F ! a 0 0 0 8 0 0 0 8 9 0 0 O 0 0 0 0 0 9 0 0 0 0 0 t i g ! ) a 0 , ] } } } ",
"} | F ( d q q q q q w q q q q q q q q q q q q q q q q q y i h Q ) a 8 , ] } } } ",
"} | F ( f w w w w t t t t t t t t w t t t w t t t t t t u i p ( ) s 0 , ] } } } ",
"} | F ( K i i i i u u u u u u u u u i i u i i i u u u u i i p ( ) s 8 , ] } } } ",
"| | F ! L p p p p p p L R U U U U U R U U U c U R U R U U R R ( ! s 0 , ] } } } ",
"} | F ( I g g g g g g U ) ) ) ( ) ( ) ( ( ) ( ( ( ( ( ( ( ( _ ( ! d O , } } } } ",
"} | F ( R P L L P L L R ) ( c c Z H H H H H H H H H G G F B H H B k > < [ } } } ",
"} | F ( Q Q Q Q Q Q Q ! ( A # + 5 | | | } { } | | | | | { { | | } ] ] ] } } } } ",
"} | F ( _ _ _ _ _ _ ` ) ( C @ . 4 } | | | } | } | | | } } | | | } } } } } } } } ",
"} | F ( 3.6.5.6.5.5.5.' ( ( c z N G G G G G G G G G G G G G V | } } } } } } } } ",
"| | J ( 6.8.8.8.8.0.8.3.( ( ) ( ( ( ( ( ( ( ( _ ( ( ( ( ( ( ~ { } } } } } } } } ",
"} | F ) 8.0.0.0.0.0.0.6.3.3.3.' 3.3.3.3.' ' ' ' ' ' ' ' ' ( ^ X.} } } } } } } } ",
"} | J ) 8.w.w.w.i.w.w.w.w.w.w.w.w.w.i.w.w.w.w.w.p.i.i.w.6.( H | } } } } } } } } ",
"| | J ( 0.p.p.p.p.p.p.p.p.p.p.p.p.p.p.p.p.p.p.p.p.p.p.p.6.~ ^ | } } } } } } } } ",
"} | F ) w.g.g.g.g.g.g.g.g.g.g.g.g.g.g.g.g.g.g.g.g.g.g.g.6.( J { } } } } } } } } ",
"} | F ) t.l.l.l.l.l.l.l.l.l.l.l.h.c.l.l.l.l.l.l.c.l.l.l.8.( J { } } } } } } } } ",
"| | F ) d.c.c.c.c.c.c.s.0.0.0.0.0.0.0.0.0.0.0.0.8.0.0.0.3.( ^ { } } } } } } } } ",
"} | J _ j.b.b.b.b.b.b.r.( ( ( ( ( ) ( ( ( ( ( ( ( ( ( ( ) ~ ^ | } } } } } } } } ",
"} | F ) d.x.x.z.z.z.z.q.( ( C C J F J J J J J J J J ^ J J ^ G | } } } } } } } } ",
"} | F ( ` 3.` ` ' ` ` _ ) A # @ 5 X.{ { { | X.{ { { { | | { | } } } } } } } } } ",
"} | F ) ( ( ! ( ( ( ( ! ( C @ . 4 } } } | | | | | | | | } [ | | | } | | } } } } ",
"} | F ( R Y Y Y Y Y Y W ) ( M x B -.:.,.<.1.2.1.<.:.:.;.=.=.%.V V V V o.} } } } ",
"} { F ( Y j j K K j K E ) _ 5.3.3.7.0.i.h.c.v.c.h.p.0.7.6.' ' ( ) ) ( H | } } } ",
"} | F ( T P P P P P P E Q ! ` ) ) ` 5.7.9.t.p.r.9.7.5.3._ ^ ( ! Q ( ( J } } } } ",
"} | J ( E T T T U T T T R R R R R R R R E E E E R R R R R R U R R Q ( G | } } } ",
"| | J ( Q W W W W W Q W W W W W W W Q W W W W W W Q W W W W W W Q ! ( V | } } } ",
"} | J ) ! ! ( ! ! ! ! ! ( ( ! ! ! ! ! ( ! ! ( ! ! ! ! ( ! ( ! ! ! ( ( H } } } } ",
"} X.J ( _ ) _ _ _ _ _ _ _ ( _ _ _ _ _ _ _ _ _ _ _ _ _ _ _ _ _ _ _ ( ( G } } } } ",
"} X.) ( ` ' 3.3.3.' ' ' ' ' ' ' 3.` 3.3.' ' ' ' ' ' ' ' ' ' ' ' ' _ ( G { } } } ",
"} X.) ( 3.4.4.4.5.5.5.5.6.4.4.6.4.4.4.5.5.5.5.5.' 6.4.4.5.5.5.4.6._ ( G } } } } ",
"} X.! ! 3.3.3.4.4.3.4.4.' 3.4.4.4.3.4.3.4.4.4.4.4.4.4.4.3.4.4.4.3.) ! D { } } } ",
"} ..I I l l Y Y Y Y Y Y U Y Y Y Y Y Y Y Y Y Y Y Y Y Y Y Y Y Y I Y Y I b ] } } } ",
"}  .v m m m m m m m m m m m m m m m m m m m m m l v m m v m m m m m m n } } } } ",
"} } [ [ | { { { { [ ] ] | { {  .{ { [ [  .[  .] { { { ] ] ] { { { { { ] } } } } "
};
