/* XPM */
static char *result[] = {
/* columns rows colors chars-per-pixel */
"40 40 95 2 ",
"   c #1B2D41",
".  c #1E3145",
"X  c #233346",
"o  c #24364A",
"O  c #28374A",
"+  c #27394C",
"@  c #29394D",
"#  c #2B3E52",
"$  c #323E55",
"%  c #2D4356",
"&  c #2A4358",
"*  c #34445C",
"=  c #39475D",
"-  c #33495D",
";  c #364C62",
":  c #3A4D65",
">  c #3D4E69",
",  c #305266",
"<  c #375569",
"1  c #3C546B",
"2  c #3C5A6D",
"3  c #365C70",
"4  c #3D5F72",
"5  c #3F6275",
"6  c #3E647B",
"7  c #47536D",
"8  c #4B526A",
"9  c #435C75",
"0  c #485A77",
"q  c #555B76",
"w  c #5B5C73",
"e  c #43657A",
"r  c #4C627D",
"t  c #45697D",
"y  c #55627E",
"u  c #636077",
"i  c #646178",
"p  c #6E697E",
"a  c #4C6780",
"s  c #486F83",
"d  c #556E8A",
"f  c #447285",
"g  c #497286",
"h  c #45768B",
"j  c #4B748B",
"k  c #4D798D",
"l  c #54728A",
"z  c #5A768D",
"x  c #4C7C92",
"c  c #557D93",
"v  c #597A93",
"b  c #507E98",
"n  c #656783",
"m  c #626985",
"M  c #6E6B81",
"N  c #6D6D89",
"B  c #706F8B",
"V  c #65728C",
"C  c #74728E",
"Z  c #6C7690",
"A  c #6C7C95",
"S  c #6E7E98",
"D  c #7A7694",
"F  c #737A95",
"G  c #787B97",
"H  c #767D99",
"J  c #7B7D99",
"K  c #867E9A",
"L  c #4E8295",
"P  c #538698",
"I  c #558A9D",
"U  c #5C899C",
"Y  c #6F849C",
"T  c #7C879F",
"R  c #568CA0",
"E  c #598EA2",
"W  c #5A92A6",
"Q  c #608DA2",
"!  c #7C8BA3",
"~  c #8B829F",
"^  c #93869F",
"/  c #8684A0",
"(  c #8C85A2",
")  c #8D8BA6",
"_  c #9286A2",
"`  c #9589A4",
"'  c #9B8CA6",
"]  c #9C8DA9",
"[  c #A695B0",
"{  c #AE9BB4",
"}  c #B09FB8",
"|  c #B5A1B9",
" . c #BAA5BD",
".. c #BFA9C0",
"X. c #C3ADC3",
/* pixels */
"W W W W W W W W W W W W W W W W W W W W W W W W W W W W W W W W W W W W W W W W ",
"W W W W W W W W W W W W W W W W W W W W W W W W W W W W W W W W W W W W W W W W ",
"W W W W W W W W W W W W W W W W W W W W W W W W W W W W W W W W W W W W W W W W ",
"W W W W W W W W W W W W W W W W W W W W W W W W W W W W W W W W W W W W W W W W ",
"W W W W W W W W W W W W W W W W W W W Y P E W W W W W W W W W W W W W W W W W W ",
"W W W W W W W W W W W W W W W W W W E S n l I W W W W W W W W W W W W W W W W W ",
"W W W W W W W W W W W W W W W W W W c V q 2 L W W W W W W W W W W W W W W W W W ",
"W W W W W W W W W W W W W W W W W W z n 7 % f W W W W W W W W W W W W W W W W W ",
"W W W W W W W W W W W W W W W W W x S _ i % 4 I W W W W W W W W W W W W W W W W ",
"W W W W W W W W W W W W W W W W W j ) | F - % j W W W W W W W W W W W W W W W W ",
"W W W W W W W W W W W W W W W W R Z } X.C * + t W W W W W W W W W W W W W W W W ",
"W W W W W W W W W W W W W W W W b H ..X.C * X 2 I W E W W W W W W W W W W W W W ",
"W W W W W W W W W W W W W W W W c / ....C * X - k W E W W W W W W W W W W W W W ",
"W W W W W W W W W W W W W W W Q A ` ..} B * X O 5 I W W W W W W W W W W W W W W ",
"W W W W W W W W W W W W W W Q ! / ' ..} C * X X % e I W W W W W W W W W W W W W ",
"W W W W W W W W W W W W W Q ! ] K _ ..| C - X X O % e I W W W W W W W W W W W W ",
"W W W W W W W W W W W W W Y ( G n ( ..} B * X X O * 7 k W W W W W W W W W W W W ",
"W W W W W W W W W W W W E Y N 0 0 K  . .M @ . X O * : j W W W W W W W W W W W W ",
"W W W W W W W W W W W W W z r t 9 J }  .p o . # < 9 9 L W W W W W W W W W W W W ",
"W W W W W W W W W W W W W I I W x K } { w . X ; x W I E W W W W W W W W W W W W ",
"W W W W W W W W W W W W W E W W x F { ' =   X 1 P W W W W W W W W W W W W W W W ",
"W W W W W W W W W W W W W W E W x Z [ _ $   X 4 I E E W W W W W W W W W W W W W ",
"W W W W W W W W W W W W W W W W R V ] ` ;   O t W W W W W W W W W W W W W W W W ",
"W W W W W W W W W W W W W W W W E d ( ] 8   O s W W W W W W W W W W W W W W W W ",
"W W W W W W W W W W W W W W W W W g T ^ y o & k W E W W W W W W W W W W W W W W ",
"W W W W W W W W W W W W W W W W W h M ^ u . , P W W W W W W W W W W W W W W W W ",
"W W W W W W W W W W W W W W W W W k V ~ u X 3 E W W W W W W W W W W W W W W W W ",
"W W W W W W W W W W W W W W W W W L y D y + 6 W E W W W W W W W W W W W W W W W ",
"W W W W W W W W W W W W W W W E W E l B w + 6 W W W W W W W W W W W W W W W W W ",
"W W W W W W W W W W W W W W W E E W j m 8 % f W W W W W W W W W W W W W W W W W ",
"W W W W W W W W W W W W W W W W W W j y 8 - h W W W W W W W W W W W W W W W W W ",
"W W W W W W W W W W W W W W W W W W k r = 3 L W W W W W W W W W W W W W W W W W ",
"W W W W W W W W W W W W W W W W E W x 9 = 4 I W W W W W W W W W W W W W W W W W ",
"W W W W W W W W W W W W W W W W E R t : * * g E W E W W W W W W W W W W W W W W ",
"W W W W W W W W W W W W W W W W v 0 > ; # o - g I E W W W W W W W W W W W W W W ",
"W W W W W W W W W W W W W W W U d a 9 1 * * ; 2 k E W W W W W W W W W W W W W W ",
"W W W W W W W W W W W W W W W W E R R R I R R E E W W W W W W W W W W W W W W W ",
"W W W W W W W W W W W W W W W W W W W W W W W W W W W W W W W W W W W W W W W W ",
"W W W W W W W W W W W W W W W W W W W W W W W W W W W W W W W W W W W W W W W W ",
"W W W W W W W W W W W W W W W W W W W W W W W W W W W W W W W W W W W W W W W W "
};
