/* XPM */
static char *result[] = {
/* columns rows colors chars-per-pixel */
"40 40 195 2 ",
"   c #010100",
".  c #060903",
"X  c #0B0D05",
"o  c #110F09",
"O  c #0E1107",
"+  c #0F1509",
"@  c #101207",
"#  c #121509",
"$  c #18170B",
"%  c #151B0C",
"&  c #1A1E0D",
"*  c #1B230E",
"=  c #172A0D",
"-  c #1D290E",
";  c #172010",
":  c #1D2311",
">  c #1E2A12",
",  c #22250F",
"<  c #222612",
"1  c #232B14",
"2  c #292E16",
"3  c #232F1A",
"4  c #282F18",
"5  c #243316",
"6  c #253815",
"7  c #283817",
"8  c #26331B",
"9  c #2B351C",
"0  c #26391B",
"q  c #2C3B1D",
"w  c #30391E",
"e  c #273522",
"r  c #293720",
"t  c #273E21",
"y  c #2C3D23",
"u  c #323D21",
"i  c #283E3A",
"p  c #2E431B",
"a  c #2D461A",
"s  c #314A1F",
"d  c #2E4221",
"f  c #2D4827",
"g  c #334424",
"h  c #334C24",
"j  c #334529",
"k  c #354C2B",
"l  c #394C2D",
"z  c #345124",
"x  c #385227",
"c  c #35522D",
"v  c #39542B",
"b  c #3D5B2F",
"n  c #354A32",
"m  c #3B4F31",
"M  c #3B5433",
"N  c #3C5B34",
"B  c #3A5738",
"V  c #3D5A3A",
"C  c #3E603C",
"Z  c #415F33",
"A  c #415D3A",
"S  c #436335",
"D  c #466936",
"F  c #43633D",
"G  c #47693A",
"H  c #496D3E",
"J  c #4A713D",
"K  c #304E40",
"L  c #355044",
"P  c #395B49",
"I  c #395D54",
"U  c #405A40",
"Y  c #436442",
"T  c #466A45",
"R  c #4B6B44",
"E  c #42664B",
"W  c #466C4A",
"Q  c #496E4A",
"!  c #4C7346",
"~  c #47704D",
"^  c #4B734D",
"/  c #517446",
"(  c #557946",
")  c #54754B",
"_  c #58754D",
"`  c #537B4B",
"'  c #5A7E4D",
"]  c #486B53",
"[  c #406358",
"{  c #456D5C",
"}  c #4B7551",
"|  c #4E7A53",
" . c #4A765C",
".. c #4D7A5A",
"X. c #567455",
"o. c #5B7750",
"O. c #517D55",
"+. c #5A7C53",
"@. c #57775A",
"#. c #507F5E",
"$. c #5F7E59",
"%. c #416567",
"&. c #446B64",
"*. c #4B7462",
"=. c #4D7B62",
"-. c #49736A",
";. c #4D7C6D",
":. c #5F7F61",
">. c #547C6C",
",. c #426873",
"<. c #4E7D74",
"1. c #4E7E7C",
"2. c #547D77",
"3. c #5C824D",
"4. c #5E8451",
"5. c #54825A",
"6. c #59855E",
"7. c #57895F",
"8. c #59895F",
"9. c #618552",
"0. c #628A54",
"q. c #648058",
"w. c #678D59",
"e. c #688E59",
"r. c #6B935D",
"t. c #4F806C",
"y. c #538464",
"u. c #5A8C62",
"i. c #52836A",
"p. c #5D9266",
"a. c #5F926B",
"s. c #4F8076",
"d. c #528273",
"f. c #5B8976",
"g. c #53827D",
"h. c #59857F",
"j. c #608361",
"k. c #6B8D63",
"l. c #6C9462",
"z. c #6B916D",
"x. c #719762",
"c. c #739A65",
"v. c #648975",
"b. c #638C79",
"n. c #6C9472",
"m. c #699F70",
"M. c #61907B",
"N. c #6C9478",
"B. c #719A7B",
"V. c #77A069",
"C. c #7DA56E",
"Z. c #7FA86E",
"A. c #76A076",
"S. c #7EA574",
"D. c #7EA67A",
"F. c #84AB74",
"G. c #88AF77",
"H. c #83AA7C",
"J. c #8EB67C",
"K. c #4B7988",
"L. c #4F8081",
"P. c #528384",
"I. c #5A8785",
"U. c #558985",
"Y. c #53848B",
"T. c #55898C",
"R. c #5B8B8A",
"E. c #538692",
"W. c #568A93",
"Q. c #5A8E96",
"!. c #53879A",
"~. c #568B9C",
"^. c #598E9D",
"/. c #5C929C",
"(. c #608A82",
"). c #6C9A87",
"_. c #64958D",
"`. c #68968E",
"'. c #639493",
"]. c #6B9B93",
"[. c #61959C",
"{. c #66999B",
"}. c #78A486",
"|. c #7EA984",
" X c #76A38C",
".X c #73A392",
"XX c #79A690",
"oX c #578FA1",
"OX c #588FA1",
"+X c #5A92A5",
"@X c #81AB88",
"#X c #87B188",
"$X c #91BB8D",
"%X c #95C292",
"&X c #A1CE96",
/* pixels */
"+X+X+X+X+X+X+X+X+X+X+X+X+X+X+X+X+X+X+X+X+X+X+X+X+X+X+X+X+X+X+X+X+X+X+X+X+X+X+X+X",
"+X+X+X+X+X+X+X+X+X+X+X+X+X+X+X+X+X+X+X+X+XoX+X+X+X+X+X+X+X+X+X+X+X+X+X+X+X+X+X+X",
"+X+X+X+X+X+X+X[.+X+X+X+X+X+X/././.+X+X+X+X+X/./.+X+X[.^.+X+X+X+X+X+X+X+X+X+X+X+X",
"+X+X+X+X+X+X.X.X/./.{.XX{./.f.n.`.+X+X+XoX'.A.A..X}.z.f./.+XoX'.'./.+X+X+X+X+X+X",
"+X+X/.'.R.I.%X$X(.2.H.&X@XN.k.C.$XB./.+XQ.M.C.c.#XJ.V.7.R.].T. X$X X+XQ.oX+X+X+X",
"+X+X`.|.|.z.G.G.z.j.c.J.F.S.9.9.C.l.M.).f.} 0.w.F.C.3./ N.#XB.D.J.S.}.|.].oX+X+X",
"+X/.U.n.Z.r.4.e.c.r.0.l.c.c.9.3.w.J l.D.^ f S 4.C.3.S G l.F.S.x.r.r.C.H._./.+X+X",
"OXg.&.] 3.3.D D 0.0./ 9.e.3.4.r.4.z 4.c.N = z 3.0.D Z ` +.r.r.( D ( r.O.;.T.+X+X",
"^.{ S N b G x a b G D / 0.H H 3.` h D G 0 ; h S v h F ' D ( J z s S G s z -.+X+X",
"OXL.E x x C z - h F N N ! Z v F H x z h 5 % 6 p 2 p b b s Z k 6 p b x d h -.+X+X",
"+X/.E.[ x ^ N % k ` F g S v d p x g p 5 = % - - * - 6 7 p g 7 * 9 R V e %.W.+X+X",
"~.g.g.{ V ^ C ; f Q F t k h 5 1 q q 5 - + O + + @ # ; * 1 7 % % f ! Y L K.^.+X+X",
"~.y.5...Y C N 2 y M l 9 g q * % - > 1 % X . . . . . X O % 1 # > x F F ..d.T.+X+X",
"/.s.5.` F c k 9 9 u y 5 7 1 # X O + % O .             . O % & 5 g M A 7.u.T.+X+X",
"~.s.| T Y Q M 1 < 2 2 : , & O .   . . .                 . X % 1 y M Y *.s.W.+X+X",
"L.d.5.W Y ^ Y 9 % % & # X X .                             . O , j Q ~  .1.W.+X+X",
"~.P.=.~ A l l r # X O X                                     @ 8 k P ! u.y.T.+X+X",
"+X~.<.#.} m u 2 % .                                       . & 9 n V T =.d.W.+X+X",
"+X+XY.i.X.V w < % .                                       @ 1 u c Y ^ -.Y.+X+X+X",
"+X+XoX1.E M u 1 : % .                                   . % 3 n Y | 5.t.W.+X+X+X",
"+X+X+XE.%.M u r 9 < X                                   O : 8 k Y ..;.E.OX+X+X+X",
"+X+XoXE.-.Y B j r 1 #                             . . . . ; 9 m Y  .U.OX+X+X+X+X",
"+X+X+X!.<.W A l w * X . .                         . # # . o 8 M T } P.oX+X+X+X+X",
"+X+X+X+XP.W A M l e $ $ O                     . + O $ : % o > m Q ..;.oX+X+X+X+X",
"+X+X+X/.g.} Q F Y m 4 < # # $ $ o       .   . & y e < 2 8 : 9 M X.$.>.^.+X+X+X+X",
"+X+X+XT.y.7.^ V V M u 4 4 y l u 1 o . X @ o o y T ] M 9 l u M R o.:.P.^.+X+X+X+X",
"+X+X+XW.;.] / g t k m l A A A V A 4 o & < < 1 m } u.~ l M T Y R X.>.OXOX+X+X+X+X",
"+XOX+XOXI.$./ h k F T ~ ..T F R Y e 1 4 w 9 u U 5.p.7.Q R O...) o.v.+X+X+X+X+X+X",
"+X+X+X^.(.k._ M C ~ Q | 5.O.O.~ B e u u u w w A } 7.u.5.~ ~ ~ ) $.n./.OX+X+X+X+X",
"+XOX+X^.R.b.@.R F T ^ ^ O.8.O.Q M j j u l M A R C Y W E B A R X.2.Q.OXOX+X+X+X+X",
"+X+X+X+XOXE.>.$.W E } ^ O.6.| T Y M l A Q $.u.O.N n k t 0 Y _ >.K.+X+X+X+X+X+X+X",
"+X+X+X+X+X^.h.j.*.{ W Q O.5.5.O.~ V Q j.m.m.u.} A A n 3 t *.q.h.+X+X+X+X+X+X+X+X",
"+X+X+X+X+X+X+XK.R.,.i P  .=.5.7.5.{ >.a.a.y. .W T E P K I Y.P.W.OXOX+X+X+X+X+X+X",
"+X+X+X+X+X+X+XoXOX!.K.Y.T.W.2.=.=.1.W.Q.U.Y.U. .} } -.E.!.+X^.^.+X+X+X+X+X+X+X+X",
"+X+X+X+X+X+X+X+X+X+X+X+XOX+XW.P.K.E.+X+XoX~.oXL.;. .1.+X+X+X+X+X+X+X+X+X+X+X+X+X",
"+X+X+X+X+X+X+X+X+X+X+X+X+X+X+XoXoX+X+X+X+X+X+XoXY.L.W.+X+X+X+X+X+X+X+X+X+X+X+X+X",
"+X+X+X+X+X+X+X+X+X+X+X+X+X+X+X+X+X+X+X+X+X+X+X+X+X+X+X+X+X+X+X+X+X+X+X+X+X+X+X+X",
"+X+X+X+X+X+X+X+X+X+X+X+X+X+X+X+X+X+X+X+X+X+X+X+X+XOX+X+X+X+X+X+X+X+X+X+X+X+X+X+X",
"+X+X+X+X+X+X+X+X+X+X+X+X+X+X+X+X+X+X+X+X+X+X+X+X+X+X+X+X+X+X+X+X+X+X+X+X+X+X+X+X",
"+X+X+X+X+X+X+X+X+X+X+X+X+X+X+X+X+X+X+X+X+X+X+X+X+X+X+X+X+X+X+X+X+X+X+X+X+X+X+X+X"
};
