/* XPM */
static char *result[] = {
/* columns rows colors chars-per-pixel */
"40 40 215 2 ",
"   c #5A92A6",
".  c #5A92A5",
"X  c #588EA2",
"o  c #5E8AA0",
"O  c #618DA3",
"+  c #5A8FA3",
"@  c #5991A5",
"#  c #5A91A5",
"$  c #5A90A4",
"%  c #5991A4",
"&  c #538296",
"*  c #5F6B87",
"=  c #7E7F9B",
"-  c #6C869D",
";  c #5B8FA3",
":  c #5B91A6",
">  c #5B91A5",
",  c #5A91A6",
"<  c #598EA3",
"1  c #58879C",
"2  c #54879B",
"3  c #485F79",
"4  c #747492",
"5  c #928BA7",
"6  c #6F8DA3",
"7  c #598AA0",
"8  c #55718C",
"9  c #58889D",
"0  c #5990A4",
"q  c #578C9F",
"w  c #508297",
"e  c #4D8097",
"r  c #4A768E",
"t  c #405974",
"y  c #5B6281",
"u  c #8A809E",
"i  c #83849E",
"p  c #618097",
"a  c #538199",
"s  c #558AA0",
"d  c #5A93A6",
"f  c #57889E",
"g  c #4A5F7C",
"h  c #51758D",
"j  c #588FA3",
"k  c #598FA3",
"l  c #598FA4",
"z  c #55899C",
"x  c #4C7B91",
"c  c #47758D",
"v  c #51738C",
"b  c #61758D",
"n  c #6D7790",
"m  c #747B97",
"M  c #7B7F9B",
"N  c #7F7D98",
"B  c #8B829E",
"V  c #9689A4",
"C  c #9A8CA7",
"Z  c #9089A4",
"A  c #7D819D",
"S  c #6D7B97",
"D  c #4E758F",
"F  c #518397",
"G  c #5A93A7",
"H  c #54869B",
"J  c #3F546E",
"K  c #3F566E",
"L  c #497185",
"P  c #4C778D",
"I  c #4D6E86",
"U  c #556E88",
"Y  c #5D6E88",
"T  c #656F8A",
"R  c #737793",
"E  c #8883A0",
"W  c #9B8DAA",
"Q  c #A795B1",
"!  c #B19DB6",
"~  c #B8A3BC",
"^  c #BDA7BF",
"/  c #BEA8BF",
"(  c #BFA8C0",
")  c #C1ABC2",
"_  c #C2ACC3",
"`  c #BBA6BF",
"'  c #9790AB",
"]  c #6E7992",
"[  c #57768E",
"{  c #5C889D",
"}  c #538498",
"|  c #354A60",
" . c #36475E",
".. c #3E5069",
"X. c #495872",
"o. c #585F7B",
"O. c #676884",
"+. c #75718C",
"@. c #827893",
"#. c #8C809A",
"$. c #8C819A",
"%. c #807892",
"&. c #746F88",
"*. c #7E778F",
"=. c #9A8BA3",
"-. c #A695AB",
";. c #A292AA",
":. c #A393AD",
">. c #A192AB",
",. c #A293AC",
"<. c #AA99B1",
"1. c #AE9DB4",
"2. c #A495AE",
"3. c #7A7692",
"4. c #5C6480",
"5. c #6E748E",
"6. c #61879D",
"7. c #5B93A7",
"8. c #518297",
"9. c #2D4054",
"0. c #2B3B4F",
"q. c #36495E",
"w. c #3B4C62",
"e. c #3B475D",
"r. c #3B455B",
"t. c #3E465B",
"y. c #3F465B",
"u. c #334056",
"i. c #24374D",
"p. c #1C2F44",
"a. c #203348",
"s. c #3A4459",
"d. c #474E62",
"f. c #4B536B",
"g. c #525974",
"h. c #4F5873",
"j. c #4F5874",
"k. c #505974",
"l. c #4E5873",
"z. c #3E4C64",
"x. c #3C4D64",
"c. c #57657D",
"v. c #5C849A",
"b. c #528398",
"n. c #31455A",
"m. c #364F63",
"M. c #4A7688",
"N. c #477587",
"B. c #386074",
"V. c #31566A",
"C. c #2D5064",
"Z. c #28495D",
"A. c #244156",
"S. c #22374B",
"D. c #223245",
"F. c #243144",
"G. c #223043",
"H. c #1C2F42",
"J. c #1C3144",
"K. c #233549",
"L. c #24364A",
"P. c #25364A",
"I. c #27374C",
"U. c #26364B",
"Y. c #26384C",
"T. c #294055",
"R. c #325266",
"E. c #40677A",
"W. c #518194",
"Q. c #528498",
"!. c #3C566C",
"~. c #507C91",
"^. c #5890A4",
"/. c #588FA2",
"(. c #54869A",
"). c #4D7A8E",
"_. c #44697D",
"`. c #3E5E71",
"'. c #385568",
"]. c #344D60",
"[. c #2F4458",
"{. c #28374B",
"}. c #253245",
"|. c #243244",
" X c #253345",
".X c #293A4D",
"XX c #334C5F",
"oX c #3C5B6D",
"OX c #466D80",
"+X c #55899D",
"@X c #568B9F",
"#X c #4E7A8E",
"$X c #5A91A4",
"%X c #5990A5",
"&X c #558A9D",
"*X c #518296",
"=X c #477285",
"-X c #2F4559",
";X c #28374A",
":X c #29374B",
">X c #30475A",
",X c #446B7E",
"<X c #518295",
"1X c #578EA2",
"2X c #528397",
"3X c #374E64",
"4X c #35465D",
"5X c #32475B",
"6X c #487285",
"7X c #528295",
"8X c #415972",
"9X c #497085",
"0X c #588EA1",
"qX c #56899E",
"wX c white",
/* pixels */
"                                                                                ",
"                                                                                ",
"                                                                                ",
"                                                                                ",
"                                                                                ",
"                                                                                ",
"                                                                                ",
"                                                                                ",
"                                                                                ",
"                                                                                ",
"                                                                                ",
"                                                                                ",
"                                                                                ",
"                                      . X o O + @                               ",
"                                # # $ % & * = - ; : > , #                       ",
"            < 1 #       @ @ # # # # #   2 3 4 5 6 > > # # #                     ",
"            7 8 9 0 0 # @ % 0 $ # q w e r t y u i p a s # #   #                 ",
"          d f g h j k l $ z x c v b n m M N B V C Z A S D F + #                 ",
"          G H J K L P I U Y T R E W Q ! ~ ^ / ( ( ) _ ` ' ] [ { >               ",
"          G } |  ...X.o.O.+.@.#.$.%.&.*.=.-.;.:.>.,.<.1.2.3.4.5.6.              ",
"          7.8.9.0.q.w.e.r.t.y.t.u.i.p.a.s.d.f.g.g.h.j.k.l.z.x.c.v.d             ",
"          G b.n.m.M.N.B.V.C.Z.A.S.D.F.G.H.J.K.L.P.I.U.Y.T.R.E.W.#               ",
"          G Q.!.~.# % ^.^./.(.)._.`.'.].[.{.}.|. X.XXXoXOX+X% @                 ",
"            @X#X$ $X@ @ @ # @ % @ %X&X*X=X-X;X:X>X,X<X1X# @ @ #                 ",
"              0 @ ,         @ @ @ @ 0   2X3X4X5X6X0 ^.@ @ #                     ",
"              @                     0 @ 7X8X8X9X0X% @                           ",
"                                        k qXqXj                                 ",
"                                          G G                                   ",
"                                                                                ",
"                                                                                ",
"                                                                                ",
"                                                                                ",
"                                                                                ",
"                                                                                ",
"                                                                                ",
"                                                                                ",
"                                                                                ",
"                                                                                ",
"                                                                                ",
"                                                                                "
};
