/* XPM */
static char *result[] = {
/* columns rows colors chars-per-pixel */
"40 40 215 2 ",
"   c #5A92A6",
".  c #5A93A7",
"X  c #588FA3",
"o  c #56899E",
"O  c #598FA3",
"+  c #5991A5",
"@  c #5991A4",
"#  c #588EA1",
"$  c #497085",
"%  c #415972",
"&  c #528295",
"*  c #5990A4",
"=  c #5A91A5",
"-  c #5890A4",
";  c #487285",
":  c #32475B",
">  c #35465D",
",  c #374E64",
"<  c #528397",
"1  c #5A91A6",
"2  c #578EA2",
"3  c #518295",
"4  c #446B7E",
"5  c #30475A",
"6  c #29374B",
"7  c #28374A",
"8  c #2F4559",
"9  c #477285",
"0  c #518296",
"q  c #558A9D",
"w  c #5990A5",
"e  c #5A91A4",
"r  c #5A90A4",
"t  c #4E7A8E",
"y  c #568B9F",
"u  c #55899D",
"i  c #466D80",
"p  c #3C5B6D",
"a  c #334C5F",
"s  c #293A4D",
"d  c #253345",
"f  c #243244",
"g  c #253245",
"h  c #28374B",
"j  c #2F4458",
"k  c #344D60",
"l  c #385568",
"z  c #3E5E71",
"x  c #44697D",
"c  c #4D7A8E",
"v  c #54869A",
"b  c #588FA2",
"n  c #507C91",
"m  c #3C566C",
"M  c #528498",
"N  c #518194",
"B  c #40677A",
"V  c #325266",
"C  c #294055",
"Z  c #26384C",
"A  c #26364B",
"S  c #27374C",
"D  c #25364A",
"F  c #24364A",
"G  c #233549",
"H  c #1C3144",
"J  c #1C2F42",
"K  c #223043",
"L  c #243144",
"P  c #223245",
"I  c #22374B",
"U  c #244156",
"Y  c #28495D",
"T  c #2D5064",
"R  c #31566A",
"E  c #386074",
"W  c #477587",
"Q  c #4A7688",
"!  c #364F63",
"~  c #31455A",
"^  c #528398",
"/  c #5A93A6",
"(  c #5C849A",
")  c #57657D",
"_  c #3C4D64",
"`  c #3E4C64",
"'  c #4E5873",
"]  c #505974",
"[  c #4F5874",
"{  c #4F5873",
"}  c #525974",
"|  c #4B536B",
" . c #474E62",
".. c #3A4459",
"X. c #203348",
"o. c #1C2F44",
"O. c #24374D",
"+. c #334056",
"@. c #3E465B",
"#. c #3F465B",
"$. c #3B455B",
"%. c #3B475D",
"&. c #3B4C62",
"*. c #36495E",
"=. c #2B3B4F",
"-. c #2D4054",
";. c #518297",
":. c #5B93A7",
">. c #61879D",
",. c #6E748E",
"<. c #5C6480",
"1. c #7A7692",
"2. c #A495AE",
"3. c #AE9DB4",
"4. c #AA99B1",
"5. c #A293AC",
"6. c #A192AB",
"7. c #A393AD",
"8. c #A292AA",
"9. c #A695AB",
"0. c #9A8BA3",
"q. c #7E778F",
"w. c #746F88",
"e. c #807892",
"r. c #8C819A",
"t. c #8C809A",
"y. c #827893",
"u. c #75718C",
"i. c #676884",
"p. c #585F7B",
"a. c #495872",
"s. c #3E5069",
"d. c #36475E",
"f. c #354A60",
"g. c #538498",
"h. c #5B91A5",
"j. c #5C889D",
"k. c #57768E",
"l. c #6E7992",
"z. c #9790AB",
"x. c #BBA6BF",
"c. c #C2ACC3",
"v. c #C1ABC2",
"b. c #BFA8C0",
"n. c #BEA8BF",
"m. c #BDA7BF",
"M. c #B8A3BC",
"N. c #B19DB6",
"B. c #A795B1",
"V. c #9B8DAA",
"C. c #8883A0",
"Z. c #737793",
"A. c #656F8A",
"S. c #5D6E88",
"D. c #556E88",
"F. c #4D6E86",
"G. c #4C778D",
"H. c #497185",
"J. c #3F566E",
"K. c #3F546E",
"L. c #54869B",
"P. c #5A8FA3",
"I. c #518397",
"U. c #4E758F",
"Y. c #6D7B97",
"T. c #7D819D",
"R. c #9089A4",
"E. c #9A8CA7",
"W. c #9689A4",
"Q. c #8B829E",
"!. c #7F7D98",
"~. c #7B7F9B",
"^. c #747B97",
"/. c #6D7790",
"(. c #61758D",
"). c #51738C",
"_. c #47758D",
"`. c #4C7B91",
"'. c #55899C",
"]. c #598FA4",
"[. c #51758D",
"{. c #4A5F7C",
"}. c #57889E",
"|. c #558AA0",
" X c #538199",
".X c #618097",
"XX c #83849E",
"oX c #8A809E",
"OX c #5B6281",
"+X c #405974",
"@X c #4A768E",
"#X c #4D8097",
"$X c #508297",
"%X c #578C9F",
"&X c #58889D",
"*X c #55718C",
"=X c #598AA0",
"-X c #6F8DA3",
";X c #928BA7",
":X c #747492",
">X c #485F79",
",X c #54879B",
"<X c #58879C",
"1X c #598EA3",
"2X c #5B91A6",
"3X c #5B8FA3",
"4X c #6C869D",
"5X c #7E7F9B",
"6X c #5F6B87",
"7X c #538296",
"8X c #618DA3",
"9X c #5E8AA0",
"0X c #588EA2",
"qX c #5A92A5",
"wX c white",
/* pixels */
"                                                                                ",
"                                                                                ",
"                                                                                ",
"                                                                                ",
"                                                                                ",
"                                                                                ",
"                                                                                ",
"                                                                                ",
"                                                                                ",
"                                                                                ",
"                                                                                ",
"                                                                                ",
"                                  . .                                           ",
"                                X o o O                                         ",
"                          + @ # $ % % & + *                     +               ",
"                    = + + - * ; : > , <   * + + + +         1 + *               ",
"                = + + = 2 3 4 5 6 7 8 9 0 q w + @ + = + + + e r t y             ",
"                + @ u i p a s d f g h j k l z x c v b - - @ = n m M .           ",
"              = N B V C Z A S D F G H J K L P I U Y T R E W Q ! ~ ^ .           ",
"            / ( ) _ ` ' ] [ { } } |  ...X.o.O.+.@.#.@.$.%.&.*.=.-.;.:.          ",
"              >.,.<.1.2.3.4.5.6.7.8.9.0.q.w.e.r.t.y.u.i.p.a.s.d.f.g..           ",
"              h.j.k.l.z.x.c.v.b.b.n.m.M.N.B.V.C.Z.A.S.D.F.G.H.J.K.L..           ",
"                = P.I.U.Y.T.R.E.W.Q.!.~.^./.(.)._.`.'.r ].O X [.{.}./           ",
"                =   = = |. X.XXXoXOX+X@X#X$X%X= r * @ + = * * &X*X=X            ",
"                    = = = h.h.-X;X:X>X,X  = = = = = + +       = <X1X            ",
"                      = 1 h.2X3X4X5X6X7X@ r = =                                 ",
"                              + P.8X9X0XqX                                      ",
"                                                                                ",
"                                                                                ",
"                                                                                ",
"                                                                                ",
"                                                                                ",
"                                                                                ",
"                                                                                ",
"                                                                                ",
"                                                                                ",
"                                                                                ",
"                                                                                ",
"                                                                                ",
"                                                                                "
};
