/* XPM */
static char *result[] = {
/* columns rows colors chars-per-pixel */
"40 40 215 2 ",
"   c #5A92A6",
".  c #5A93A6",
"X  c #5B91A5",
"o  c #61879D",
"O  c #5C849A",
"+  c #5A91A5",
"@  c #5C889D",
"#  c #6E748E",
"$  c #57657D",
"%  c #518194",
"&  c #5991A5",
"*  c #5A8FA3",
"=  c #57768E",
"-  c #5C6480",
";  c #3C4D64",
":  c #40677A",
">  c #5991A4",
",  c #518397",
"<  c #6E7992",
"1  c #7A7692",
"2  c #3E4C64",
"3  c #325266",
"4  c #55899D",
"5  c #4E758F",
"6  c #9790AB",
"7  c #A495AE",
"8  c #4E5873",
"9  c #294055",
"0  c #466D80",
"q  c #5A91A6",
"w  c #558AA0",
"e  c #6D7B97",
"r  c #BBA6BF",
"t  c #AE9DB4",
"y  c #505974",
"u  c #26384C",
"i  c #3C5B6D",
"p  c #578EA2",
"a  c #538199",
"s  c #7D819D",
"d  c #C2ACC3",
"f  c #AA99B1",
"g  c #4F5874",
"h  c #26364B",
"j  c #334C5F",
"k  c #518295",
"l  c #5890A4",
"z  c #5B91A6",
"x  c #618097",
"c  c #9089A4",
"v  c #C1ABC2",
"b  c #A293AC",
"n  c #4F5873",
"m  c #27374C",
"M  c #293A4D",
"N  c #446B7E",
"B  c #5990A4",
"V  c #5B8FA3",
"C  c #6F8DA3",
"Z  c #83849E",
"A  c #9A8CA7",
"S  c #BFA8C0",
"D  c #A192AB",
"F  c #525974",
"G  c #25364A",
"H  c #253345",
"J  c #30475A",
"K  c #487285",
"L  c #588EA1",
"P  c #6C869D",
"I  c #928BA7",
"U  c #8A809E",
"Y  c #9689A4",
"T  c #A393AD",
"R  c #24364A",
"E  c #243244",
"W  c #29374B",
"Q  c #32475B",
"!  c #497085",
"~  c #588FA3",
"^  c #618DA3",
"/  c #7E7F9B",
"(  c #747492",
")  c #5B6281",
"_  c #8B829E",
"`  c #BEA8BF",
"'  c #A292AA",
"]  c #4B536B",
"[  c #233549",
"{  c #253245",
"}  c #28374A",
"|  c #35465D",
" . c #415972",
".. c #56899E",
"X. c #5A93A7",
"o. c #5E8AA0",
"O. c #5F6B87",
"+. c #485F79",
"@. c #405974",
"#. c #7F7D98",
"$. c #BDA7BF",
"%. c #A695AB",
"&. c #474E62",
"*. c #1C3144",
"=. c #28374B",
"-. c #2F4559",
";. c #374E64",
":. c #588EA2",
">. c #538296",
",. c #54879B",
"<. c #4A768E",
"1. c #7B7F9B",
"2. c #B8A3BC",
"3. c #9A8BA3",
"4. c #3A4459",
"5. c #1C2F42",
"6. c #2F4458",
"7. c #477285",
"8. c #528397",
"9. c #528295",
"0. c #598FA3",
"q. c #5A92A5",
"w. c #4D8097",
"e. c #747B97",
"r. c #B19DB6",
"t. c #7E778F",
"y. c #203348",
"u. c #223043",
"i. c #344D60",
"p. c #518296",
"a. c #5A90A4",
"s. c #508297",
"d. c #6D7790",
"f. c #A795B1",
"g. c #746F88",
"h. c #1C2F44",
"j. c #243144",
"k. c #385568",
"l. c #558A9D",
"z. c #578C9F",
"x. c #61758D",
"c. c #9B8DAA",
"v. c #807892",
"b. c #24374D",
"n. c #223245",
"m. c #3E5E71",
"M. c #5990A5",
"N. c #51738C",
"B. c #8883A0",
"V. c #8C819A",
"C. c #334056",
"Z. c #22374B",
"A. c #44697D",
"S. c #47758D",
"D. c #737793",
"F. c #8C809A",
"G. c #3E465B",
"H. c #244156",
"J. c #4D7A8E",
"K. c #4C7B91",
"L. c #656F8A",
"P. c #827893",
"I. c #3F465B",
"U. c #28495D",
"Y. c #54869A",
"T. c #55899C",
"R. c #5D6E88",
"E. c #75718C",
"W. c #2D5064",
"Q. c #588FA2",
"!. c #556E88",
"~. c #676884",
"^. c #3B455B",
"/. c #31566A",
"(. c #598FA4",
"). c #4D6E86",
"_. c #585F7B",
"`. c #3B475D",
"'. c #386074",
"]. c #4C778D",
"[. c #495872",
"{. c #3B4C62",
"}. c #477587",
"|. c #497185",
" X c #3E5069",
".X c #36495E",
"XX c #4A7688",
"oX c #5A91A4",
"OX c #58889D",
"+X c #51758D",
"@X c #3F566E",
"#X c #36475E",
"$X c #2B3B4F",
"%X c #364F63",
"&X c #507C91",
"*X c #58879C",
"=X c #55718C",
"-X c #4A5F7C",
";X c #3F546E",
":X c #354A60",
">X c #2D4054",
",X c #31455A",
"<X c #3C566C",
"1X c #4E7A8E",
"2X c #598EA3",
"3X c #598AA0",
"4X c #57889E",
"5X c #54869B",
"6X c #538498",
"7X c #518297",
"8X c #528398",
"9X c #528498",
"0X c #568B9F",
"qX c #5B93A7",
"wX c white",
/* pixels */
"                                                                                ",
"                                                                                ",
"                                                                                ",
"                                                                                ",
"                                                                                ",
"                                                                                ",
"                                        .                                       ",
"                                    X o O +                                     ",
"                                + + @ # $ % & +                                 ",
"                                  * = - ; : > &                                 ",
"                              + + , < 1 2 3 4 & +                               ",
"                            + + + 5 6 7 8 9 0 + &                               ",
"                            q + w e r t y u i p &                               ",
"                            X X a s d f g h j k l &                             ",
"                            z X x c v b n m M N B >                             ",
"                          & V C Z A S D F G H J K L                             ",
"                          * P I U Y S T F R E W Q ! ~                           ",
"                          ^ / ( ) _ ` ' ] [ { } |  ...X.                        ",
"                          o.O.+.@.#.$.%.&.*.=.-.;. ...X.                        ",
"                          :.>.,.<.1.2.3.4.5.6.7.8.9.0.                          ",
"                          q.>   w.e.r.t.y.u.i.p.  &                             ",
"                            a.+ s.d.f.g.h.j.k.l.B B                             ",
"                            + + z.x.c.v.b.n.m.M.&                               ",
"                            + + + N.B.V.C.Z.A.& &                               ",
"                              + a.S.D.F.G.H.J.> &                               ",
"                              + B K.L.P.I.U.Y.& &                               ",
"                              & > T.R.E.G.W.Q.+                                 ",
"                              & & a.!.~.^./.l &                                 ",
"                                + (.)._.`.'.l &                                 ",
"                                B 0.].[.{.}.> &                                 ",
"                                B ~ |. X.XXX+ oXq                               ",
"                              + OX+X@X#X$X%X&Xa.&                               ",
"                              *X=X-X;X:X>X,X<X1XB &                             ",
"                              2X3X4X5X6X7X8X9X0X                                ",
"                                  . X.X.qXX.X.                                  ",
"                                                                                ",
"                                                                                ",
"                                                                                ",
"                                                                                ",
"                                                                                "
};
