/* XPM */
static char *result[] = {
/* columns rows colors chars-per-pixel */
"40 40 215 2 ",
"   c #5A92A6",
".  c #5A93A7",
"X  c #5B93A7",
"o  c #5A93A6",
"O  c #568B9F",
"+  c #528498",
"@  c #528398",
"#  c #518297",
"$  c #538498",
"%  c #54869B",
"&  c #57889E",
"*  c #598AA0",
"=  c #598EA3",
"-  c #5991A5",
";  c #5990A4",
":  c #4E7A8E",
">  c #3C566C",
",  c #31455A",
"<  c #2D4054",
"1  c #354A60",
"2  c #3F546E",
"3  c #4A5F7C",
"4  c #55718C",
"5  c #58879C",
"6  c #5A90A4",
"7  c #507C91",
"8  c #364F63",
"9  c #2B3B4F",
"0  c #36475E",
"q  c #3F566E",
"w  c #51758D",
"e  c #58889D",
"r  c #5A91A5",
"t  c #5A91A6",
"y  c #5A91A4",
"u  c #4A7688",
"i  c #36495E",
"p  c #3E5069",
"a  c #497185",
"s  c #588FA3",
"d  c #5991A4",
"f  c #477587",
"g  c #3B4C62",
"h  c #495872",
"j  c #4C778D",
"k  c #598FA3",
"l  c #5890A4",
"z  c #386074",
"x  c #3B475D",
"c  c #585F7B",
"v  c #4D6E86",
"b  c #598FA4",
"n  c #31566A",
"m  c #3B455B",
"M  c #676884",
"N  c #556E88",
"B  c #588FA2",
"V  c #2D5064",
"C  c #3E465B",
"Z  c #75718C",
"A  c #5D6E88",
"S  c #55899C",
"D  c #54869A",
"F  c #28495D",
"G  c #3F465B",
"H  c #827893",
"J  c #656F8A",
"K  c #4C7B91",
"L  c #4D7A8E",
"P  c #244156",
"I  c #8C809A",
"U  c #737793",
"Y  c #47758D",
"T  c #44697D",
"R  c #22374B",
"E  c #334056",
"W  c #8C819A",
"Q  c #8883A0",
"!  c #51738C",
"~  c #5990A5",
"^  c #3E5E71",
"/  c #223245",
"(  c #24374D",
")  c #807892",
"_  c #9B8DAA",
"`  c #61758D",
"'  c #578C9F",
"]  c #558A9D",
"[  c #385568",
"{  c #243144",
"}  c #1C2F44",
"|  c #746F88",
" . c #A795B1",
".. c #6D7790",
"X. c #508297",
"o. c #518296",
"O. c #344D60",
"+. c #223043",
"@. c #203348",
"#. c #7E778F",
"$. c #B19DB6",
"%. c #747B97",
"&. c #4D8097",
"*. c #5A92A5",
"=. c #528295",
"-. c #528397",
";. c #477285",
":. c #2F4458",
">. c #1C2F42",
",. c #3A4459",
"<. c #9A8BA3",
"1. c #B8A3BC",
"2. c #7B7F9B",
"3. c #4A768E",
"4. c #54879B",
"5. c #538296",
"6. c #588EA2",
"7. c #56899E",
"8. c #415972",
"9. c #374E64",
"0. c #2F4559",
"q. c #28374B",
"w. c #1C3144",
"e. c #474E62",
"r. c #A695AB",
"t. c #BDA7BF",
"y. c #7F7D98",
"u. c #405974",
"i. c #485F79",
"p. c #5F6B87",
"a. c #5E8AA0",
"s. c #35465D",
"d. c #28374A",
"f. c #253245",
"g. c #233549",
"h. c #4B536B",
"j. c #A292AA",
"k. c #BEA8BF",
"l. c #8B829E",
"z. c #5B6281",
"x. c #747492",
"c. c #7E7F9B",
"v. c #618DA3",
"b. c #497085",
"n. c #32475B",
"m. c #29374B",
"M. c #243244",
"N. c #24364A",
"B. c #525974",
"V. c #A393AD",
"C. c #BFA8C0",
"Z. c #9689A4",
"A. c #8A809E",
"S. c #928BA7",
"D. c #6C869D",
"F. c #5A8FA3",
"G. c #588EA1",
"H. c #487285",
"J. c #30475A",
"K. c #253345",
"L. c #25364A",
"P. c #A192AB",
"I. c #9A8CA7",
"U. c #83849E",
"Y. c #6F8DA3",
"T. c #5B8FA3",
"R. c #446B7E",
"E. c #293A4D",
"W. c #27374C",
"Q. c #4F5873",
"!. c #A293AC",
"~. c #C1ABC2",
"^. c #9089A4",
"/. c #618097",
"(. c #5B91A5",
"). c #5B91A6",
"_. c #518295",
"`. c #334C5F",
"'. c #26364B",
"]. c #4F5874",
"[. c #AA99B1",
"{. c #C2ACC3",
"}. c #7D819D",
"|. c #538199",
" X c #578EA2",
".X c #3C5B6D",
"XX c #26384C",
"oX c #505974",
"OX c #AE9DB4",
"+X c #BBA6BF",
"@X c #6D7B97",
"#X c #558AA0",
"$X c #466D80",
"%X c #294055",
"&X c #4E5873",
"*X c #A495AE",
"=X c #9790AB",
"-X c #4E758F",
";X c #55899D",
":X c #325266",
">X c #3E4C64",
",X c #7A7692",
"<X c #6E7992",
"1X c #518397",
"2X c #40677A",
"3X c #3C4D64",
"4X c #5C6480",
"5X c #57768E",
"6X c #518194",
"7X c #57657D",
"8X c #6E748E",
"9X c #5C889D",
"0X c #5C849A",
"qX c #61879D",
"wX c white",
/* pixels */
"                                                                                ",
"                                                                                ",
"                                                                                ",
"                                                                                ",
"                                                                                ",
"                                  . . X . . o                                   ",
"                                O + @ # $ % & * =                               ",
"                            - ; : > , < 1 2 3 4 5                               ",
"                              - 6 7 8 9 0 q w e r                               ",
"                              t y r u i p a s ;                                 ",
"                                - d f g h j k ;                                 ",
"                                - l z x c v b r                                 ",
"                                - l n m M N 6 - -                               ",
"                                r B V C Z A S d -                               ",
"                              - - D F G H J K ; r                               ",
"                              - d L P C I U Y 6 r                               ",
"                              - - T R E W Q ! r r r                             ",
"                              - ~ ^ / ( ) _ ` ' r r                             ",
"                            ; ; ] [ { } |  ...X.r 6                             ",
"                            -   o.O.+.@.#.$.%.&.  d *.                          ",
"                          k =.-.;.:.>.,.<.1.2.3.4.5.6.                          ",
"                        . 7.8.9.0.q.w.e.r.t.y.u.i.p.a.                          ",
"                        . 7.8.s.d.f.g.h.j.k.l.z.x.c.v.                          ",
"                          s b.n.m.M.N.B.V.C.Z.A.S.D.F.                          ",
"                            G.H.J.K.L.B.P.C.I.U.Y.T.-                           ",
"                            d ; R.E.W.Q.!.~.^./.(.).                            ",
"                            - l _.`.'.].[.{.}.|.(.(.                            ",
"                              -  X.XXXoXOX+X@X#Xr t                             ",
"                              - r $X%X&X*X=X-Xr r r                             ",
"                              r - ;X:X>X,X<X1Xr r                               ",
"                                - d 2X3X4X5XF.                                  ",
"                                r - 6X7X8X9Xr r                                 ",
"                                    r 0XqX(.                                    ",
"                                      o                                         ",
"                                                                                ",
"                                                                                ",
"                                                                                ",
"                                                                                ",
"                                                                                ",
"                                                                                "
};
